<svg xmlns="http://www.w3.org/2000/svg" width="24" height="24" viewBox="0 0 24 24" fill="none" stroke="currentColor" stroke-width="2" stroke-linecap="round" stroke-linejoin="round"><circle cx="9" cy="12" r="1"/><circle cx="15" cy="12" r="1"/><path d="M7.5 7.5c3.5-1 6.5-1 10 0"/><path d="M7 16.5c3.5 1 6.5 1 10 0"/><path d="M15.5 17c0 1 1.5 3 2 3 1.5 0 2.833-1.667 3.5-3 .667-1.667.5-5.833-1.5-11.5-1.5-1.5-3-2.5-4.5-2.5l-.5 2.5"/><path d="M8.5 17c0 1-1.5 3-2 3-1.5 0-2.833-1.667-3.5-3-.667-1.667-.5-5.833 1.5-11.5C6 4 7.5 3 9 3l.5 2.5"/></svg>
